# xmcd
#
# Track frame offsets:
#	150
#	16546
#	36741
#	53472
#	76330
#	93100
#	112708
#
# Disc length: 1852 seconds
#
# Revision: 0
# Processed by: cddbd v1.4PL0 Copyright (c) Steve Scherf et al.
# Submitted via: dBpowerAMP V4.0
#
DISCID=3e073a07
DTITLE=Dan Reading - Acoustic Soup
DYEAR=2003
DGENRE=Blues
TTITLE0=I'm A Blues Man
TTITLE1=Wild Thing
TTITLE2=Uncle
TTITLE3=BB King Medley
TTITLE4=Uncle (acoustic mix)
TTITLE5=12 Ounce Curls
TTITLE6=Lonely Life (acoustic mix)
EXTD=
EXTT0=
EXTT1=
EXTT2=
EXTT3=
EXTT4=
EXTT5=
EXTT6=
PLAYORDER=
